<mxfile host="app.diagrams.net" modified="2023-08-19T17:49:23.107Z" agent="Mozilla/5.0 (X11; Linux x86_64; rv:109.0) Gecko/20100101 Firefox/116.0" etag="klhMPJ-23Svyn53Vz3VL" version="21.6.8" type="github">
  <diagram name="Page-1" id="efa7a0a1-bf9b-a30e-e6df-94a7791c09e9">
    <mxGraphModel dx="631" dy="364" grid="1" gridSize="10" guides="1" tooltips="1" connect="1" arrows="1" fold="1" page="1" pageScale="1" pageWidth="826" pageHeight="1169" background="none" math="0" shadow="0">
      <root>
        <mxCell id="0" />
        <mxCell id="1" parent="0" />
        <mxCell id="pgx4OTSIPYldHVkFa5tO-132" value="m" style="swimlane;fontStyle=4;childLayout=stackLayout;horizontal=1;startSize=30;horizontalStack=0;resizeParent=1;resizeParentMax=0;resizeLast=0;collapsible=1;marginBottom=0;whiteSpace=wrap;html=1;fontFamily=monospace;" vertex="1" parent="1">
          <mxGeometry x="30" y="30" width="240" height="90" as="geometry" />
        </mxCell>
        <mxCell id="pgx4OTSIPYldHVkFa5tO-133" value="&lt;div&gt;Id&lt;span style=&quot;white-space: pre;&quot;&gt;&#x9;&lt;/span&gt;&lt;span style=&quot;white-space: pre;&quot;&gt;&#x9;&lt;/span&gt;int&lt;span style=&quot;white-space: pre;&quot;&gt;&#x9;&lt;/span&gt;&lt;span style=&quot;white-space: pre;&quot;&gt;&#x9;&lt;/span&gt;key&lt;/div&gt;" style="text;strokeColor=default;fillColor=none;align=left;verticalAlign=middle;spacingLeft=4;spacingRight=4;overflow=hidden;points=[[0,0.5],[1,0.5]];portConstraint=eastwest;rotatable=0;whiteSpace=wrap;html=1;fontStyle=1;labelBorderColor=none;labelBackgroundColor=none;horizontal=1;spacingTop=0;fontFamily=monospace;" vertex="1" parent="pgx4OTSIPYldHVkFa5tO-132">
          <mxGeometry y="30" width="240" height="30" as="geometry" />
        </mxCell>
        <mxCell id="pgx4OTSIPYldHVkFa5tO-134" value="Name&lt;span style=&quot;white-space: pre;&quot;&gt;&#x9;&lt;/span&gt;char" style="text;strokeColor=default;fillColor=none;align=left;verticalAlign=middle;spacingLeft=4;spacingRight=4;overflow=hidden;points=[[0,0.5],[1,0.5]];portConstraint=eastwest;rotatable=0;whiteSpace=wrap;html=1;fontFamily=monospace;" vertex="1" parent="pgx4OTSIPYldHVkFa5tO-132">
          <mxGeometry y="60" width="240" height="30" as="geometry" />
        </mxCell>
        <mxCell id="pgx4OTSIPYldHVkFa5tO-137" value="Building" style="swimlane;fontStyle=4;childLayout=stackLayout;horizontal=1;startSize=30;horizontalStack=0;resizeParent=1;resizeParentMax=0;resizeLast=0;collapsible=1;marginBottom=0;whiteSpace=wrap;html=1;fontFamily=monospace;" vertex="1" parent="1">
          <mxGeometry x="580" y="30" width="189" height="120" as="geometry" />
        </mxCell>
        <mxCell id="pgx4OTSIPYldHVkFa5tO-138" value="Id&lt;span style=&quot;white-space: pre;&quot;&gt;&#x9;&lt;/span&gt;&lt;span style=&quot;white-space: pre;&quot;&gt;&#x9;&lt;/span&gt;int&lt;span style=&quot;white-space: pre;&quot;&gt;&#x9;&lt;/span&gt;&lt;span style=&quot;white-space: pre;&quot;&gt;&#x9;&lt;/span&gt;key" style="text;strokeColor=default;fillColor=none;align=left;verticalAlign=middle;spacingLeft=4;spacingRight=4;overflow=hidden;points=[[0,0.5],[1,0.5]];portConstraint=eastwest;rotatable=0;whiteSpace=wrap;html=1;fontStyle=1;labelBorderColor=none;labelBackgroundColor=none;horizontal=1;spacingTop=0;fontFamily=monospace;" vertex="1" parent="pgx4OTSIPYldHVkFa5tO-137">
          <mxGeometry y="30" width="189" height="30" as="geometry" />
        </mxCell>
        <mxCell id="pgx4OTSIPYldHVkFa5tO-139" value="building_name" style="text;strokeColor=default;fillColor=none;align=left;verticalAlign=middle;spacingLeft=4;spacingRight=4;overflow=hidden;points=[[0,0.5],[1,0.5]];portConstraint=eastwest;rotatable=0;whiteSpace=wrap;html=1;fontFamily=monospace;" vertex="1" parent="pgx4OTSIPYldHVkFa5tO-137">
          <mxGeometry y="60" width="189" height="30" as="geometry" />
        </mxCell>
        <mxCell id="pgx4OTSIPYldHVkFa5tO-143" value="hospital_&lt;span style=&quot;white-space: pre;&quot;&gt;id&lt;span style=&quot;white-space: pre;&quot;&gt;&#x9;&lt;/span&gt;&lt;/span&gt;char&lt;span style=&quot;white-space: pre;&quot;&gt;&#x9;&lt;/span&gt;&lt;span style=&quot;white-space: pre;&quot;&gt;&#x9;&lt;/span&gt;FK" style="text;strokeColor=default;fillColor=none;align=left;verticalAlign=middle;spacingLeft=4;spacingRight=4;overflow=hidden;points=[[0,0.5],[1,0.5]];portConstraint=eastwest;rotatable=0;whiteSpace=wrap;html=1;fontFamily=monospace;" vertex="1" parent="pgx4OTSIPYldHVkFa5tO-137">
          <mxGeometry y="90" width="189" height="30" as="geometry" />
        </mxCell>
        <mxCell id="pgx4OTSIPYldHVkFa5tO-144" value="Clinic" style="swimlane;fontStyle=4;childLayout=stackLayout;horizontal=1;startSize=30;horizontalStack=0;resizeParent=1;resizeParentMax=0;resizeLast=0;collapsible=1;marginBottom=0;whiteSpace=wrap;html=1;fontFamily=monospace;" vertex="1" parent="1">
          <mxGeometry x="340" y="30" width="189" height="180" as="geometry" />
        </mxCell>
        <mxCell id="pgx4OTSIPYldHVkFa5tO-145" value="Id&lt;span style=&quot;white-space: pre;&quot;&gt;&#x9;&lt;/span&gt;&lt;span style=&quot;white-space: pre;&quot;&gt;&#x9;&lt;/span&gt;int&lt;span style=&quot;white-space: pre;&quot;&gt;&#x9;&lt;/span&gt;&lt;span style=&quot;white-space: pre;&quot;&gt;&#x9;&lt;/span&gt;key" style="text;strokeColor=default;fillColor=none;align=left;verticalAlign=middle;spacingLeft=4;spacingRight=4;overflow=hidden;points=[[0,0.5],[1,0.5]];portConstraint=eastwest;rotatable=0;whiteSpace=wrap;html=1;fontStyle=1;labelBorderColor=none;labelBackgroundColor=none;horizontal=1;spacingTop=0;fontFamily=monospace;" vertex="1" parent="pgx4OTSIPYldHVkFa5tO-144">
          <mxGeometry y="30" width="189" height="30" as="geometry" />
        </mxCell>
        <mxCell id="pgx4OTSIPYldHVkFa5tO-146" value="clinic_name" style="text;strokeColor=default;fillColor=none;align=left;verticalAlign=middle;spacingLeft=4;spacingRight=4;overflow=hidden;points=[[0,0.5],[1,0.5]];portConstraint=eastwest;rotatable=0;whiteSpace=wrap;html=1;fontFamily=monospace;" vertex="1" parent="pgx4OTSIPYldHVkFa5tO-144">
          <mxGeometry y="60" width="189" height="30" as="geometry" />
        </mxCell>
        <mxCell id="pgx4OTSIPYldHVkFa5tO-148" value="building_&lt;span style=&quot;white-space: pre;&quot;&gt;id&lt;span style=&quot;white-space: pre;&quot;&gt;&#x9;&lt;/span&gt;&lt;/span&gt;int&lt;span style=&quot;white-space: pre;&quot;&gt;&#x9;&lt;/span&gt;&lt;span style=&quot;white-space: pre;&quot;&gt;&#x9;&lt;/span&gt;FK" style="text;strokeColor=default;fillColor=none;align=left;verticalAlign=middle;spacingLeft=4;spacingRight=4;overflow=hidden;points=[[0,0.5],[1,0.5]];portConstraint=eastwest;rotatable=0;whiteSpace=wrap;html=1;fontFamily=monospace;" vertex="1" parent="pgx4OTSIPYldHVkFa5tO-144">
          <mxGeometry y="90" width="189" height="30" as="geometry" />
        </mxCell>
        <mxCell id="pgx4OTSIPYldHVkFa5tO-160" value="clinic_schedule_&lt;span style=&quot;white-space: pre;&quot;&gt;id&lt;span style=&quot;white-space: pre;&quot;&gt;&#x9;&lt;/span&gt;&lt;/span&gt;int&lt;span style=&quot;white-space: pre;&quot;&gt;&#x9;&lt;/span&gt;&lt;span style=&quot;white-space: pre;&quot;&gt;&#x9;&lt;/span&gt;FK" style="text;strokeColor=default;fillColor=none;align=left;verticalAlign=middle;spacingLeft=4;spacingRight=4;overflow=hidden;points=[[0,0.5],[1,0.5]];portConstraint=eastwest;rotatable=0;whiteSpace=wrap;html=1;fontFamily=monospace;" vertex="1" parent="pgx4OTSIPYldHVkFa5tO-144">
          <mxGeometry y="120" width="189" height="30" as="geometry" />
        </mxCell>
        <mxCell id="pgx4OTSIPYldHVkFa5tO-161" value="clinic_ext&lt;span style=&quot;white-space: pre;&quot;&gt;&#x9;&lt;/span&gt;&lt;span style=&quot;white-space: pre;&quot;&gt;&lt;span style=&quot;white-space: pre;&quot;&gt;&#x9;&lt;/span&gt;&lt;/span&gt;int&lt;span style=&quot;white-space: pre;&quot;&gt;&#x9;&lt;/span&gt;&lt;span style=&quot;white-space: pre;&quot;&gt;&#x9;&lt;/span&gt;" style="text;strokeColor=default;fillColor=none;align=left;verticalAlign=middle;spacingLeft=4;spacingRight=4;overflow=hidden;points=[[0,0.5],[1,0.5]];portConstraint=eastwest;rotatable=0;whiteSpace=wrap;html=1;fontFamily=monospace;" vertex="1" parent="pgx4OTSIPYldHVkFa5tO-144">
          <mxGeometry y="150" width="189" height="30" as="geometry" />
        </mxCell>
        <mxCell id="pgx4OTSIPYldHVkFa5tO-151" value="Clinical Employee&amp;nbsp; " style="swimlane;fontStyle=4;childLayout=stackLayout;horizontal=1;startSize=30;horizontalStack=0;resizeParent=1;resizeParentMax=0;resizeLast=0;collapsible=1;marginBottom=0;whiteSpace=wrap;html=1;fontFamily=monospace;" vertex="1" parent="1">
          <mxGeometry x="30" y="200" width="189" height="120" as="geometry" />
        </mxCell>
        <mxCell id="pgx4OTSIPYldHVkFa5tO-152" value="Id&lt;span style=&quot;white-space: pre;&quot;&gt;&#x9;&lt;/span&gt;&lt;span style=&quot;white-space: pre;&quot;&gt;&#x9;&lt;/span&gt;int&lt;span style=&quot;white-space: pre;&quot;&gt;&#x9;&lt;/span&gt;&lt;span style=&quot;white-space: pre;&quot;&gt;&#x9;&lt;/span&gt;key" style="text;strokeColor=default;fillColor=none;align=left;verticalAlign=middle;spacingLeft=4;spacingRight=4;overflow=hidden;points=[[0,0.5],[1,0.5]];portConstraint=eastwest;rotatable=0;whiteSpace=wrap;html=1;fontStyle=1;labelBorderColor=none;labelBackgroundColor=none;horizontal=1;spacingTop=0;fontFamily=monospace;" vertex="1" parent="pgx4OTSIPYldHVkFa5tO-151">
          <mxGeometry y="30" width="189" height="30" as="geometry" />
        </mxCell>
        <mxCell id="pgx4OTSIPYldHVkFa5tO-153" value="employee_name" style="text;strokeColor=default;fillColor=none;align=left;verticalAlign=middle;spacingLeft=4;spacingRight=4;overflow=hidden;points=[[0,0.5],[1,0.5]];portConstraint=eastwest;rotatable=0;whiteSpace=wrap;html=1;fontFamily=monospace;" vertex="1" parent="pgx4OTSIPYldHVkFa5tO-151">
          <mxGeometry y="60" width="189" height="30" as="geometry" />
        </mxCell>
        <mxCell id="pgx4OTSIPYldHVkFa5tO-154" value="current_clinic_&lt;span style=&quot;white-space: pre;&quot;&gt;id&lt;span style=&quot;white-space: pre;&quot;&gt;&#x9;&lt;/span&gt;&lt;/span&gt;char&lt;span style=&quot;white-space: pre;&quot;&gt;&#x9;&lt;/span&gt; &lt;span style=&quot;white-space: pre;&quot;&gt;&#x9;&lt;/span&gt;FK" style="text;strokeColor=default;fillColor=none;align=left;verticalAlign=middle;spacingLeft=4;spacingRight=4;overflow=hidden;points=[[0,0.5],[1,0.5]];portConstraint=eastwest;rotatable=0;whiteSpace=wrap;html=1;fontFamily=monospace;" vertex="1" parent="pgx4OTSIPYldHVkFa5tO-151">
          <mxGeometry y="90" width="189" height="30" as="geometry" />
        </mxCell>
        <mxCell id="pgx4OTSIPYldHVkFa5tO-156" value="Clinic schedule" style="swimlane;fontStyle=4;childLayout=stackLayout;horizontal=1;startSize=30;horizontalStack=0;resizeParent=1;resizeParentMax=0;resizeLast=0;collapsible=1;marginBottom=0;whiteSpace=wrap;html=1;fontFamily=monospace;" vertex="1" parent="1">
          <mxGeometry x="319" y="250" width="481" height="180" as="geometry" />
        </mxCell>
        <mxCell id="pgx4OTSIPYldHVkFa5tO-157" value="Id&lt;span style=&quot;white-space: pre;&quot;&gt;&#x9;&lt;/span&gt;&lt;span style=&quot;white-space: pre;&quot;&gt;&#x9;&lt;/span&gt;&lt;span style=&quot;white-space: pre;&quot;&gt;&#x9;&lt;/span&gt;int&lt;span style=&quot;white-space: pre;&quot;&gt;&#x9;&lt;/span&gt;&lt;span style=&quot;white-space: pre;&quot;&gt;&#x9;&lt;/span&gt;key" style="text;strokeColor=default;fillColor=none;align=left;verticalAlign=middle;spacingLeft=4;spacingRight=4;overflow=hidden;points=[[0,0.5],[1,0.5]];portConstraint=eastwest;rotatable=0;whiteSpace=wrap;html=1;fontStyle=1;labelBorderColor=none;labelBackgroundColor=none;horizontal=1;spacingTop=0;fontFamily=monospace;" vertex="1" parent="pgx4OTSIPYldHVkFa5tO-156">
          <mxGeometry y="30" width="481" height="30" as="geometry" />
        </mxCell>
        <mxCell id="pgx4OTSIPYldHVkFa5tO-158" value="clinic_id&lt;span style=&quot;white-space: pre;&quot;&gt;&#x9;&lt;/span&gt;&lt;span style=&quot;white-space: pre;&quot;&gt;&#x9;&lt;/span&gt;int" style="text;strokeColor=default;fillColor=none;align=left;verticalAlign=middle;spacingLeft=4;spacingRight=4;overflow=hidden;points=[[0,0.5],[1,0.5]];portConstraint=eastwest;rotatable=0;whiteSpace=wrap;html=1;fontFamily=monospace;" vertex="1" parent="pgx4OTSIPYldHVkFa5tO-156">
          <mxGeometry y="60" width="481" height="30" as="geometry" />
        </mxCell>
        <mxCell id="pgx4OTSIPYldHVkFa5tO-159" value="start_time&lt;span style=&quot;white-space: pre;&quot;&gt;&#x9;&lt;/span&gt;&lt;span style=&quot;white-space: pre;&quot;&gt;&#x9;&lt;/span&gt;&lt;code class=&quot;type&quot;&gt;timestamp&lt;/code&gt;" style="text;strokeColor=default;fillColor=none;align=left;verticalAlign=middle;spacingLeft=4;spacingRight=4;overflow=hidden;points=[[0,0.5],[1,0.5]];portConstraint=eastwest;rotatable=0;whiteSpace=wrap;html=1;fontFamily=monospace;" vertex="1" parent="pgx4OTSIPYldHVkFa5tO-156">
          <mxGeometry y="90" width="481" height="30" as="geometry" />
        </mxCell>
        <mxCell id="pgx4OTSIPYldHVkFa5tO-190" value="end_time&lt;span style=&quot;white-space: pre;&quot;&gt;&#x9;&lt;/span&gt;&lt;span style=&quot;white-space: pre;&quot;&gt;&#x9;&lt;/span&gt;&lt;code class=&quot;type&quot;&gt;timestamp&lt;/code&gt;" style="text;strokeColor=default;fillColor=none;align=left;verticalAlign=middle;spacingLeft=4;spacingRight=4;overflow=hidden;points=[[0,0.5],[1,0.5]];portConstraint=eastwest;rotatable=0;whiteSpace=wrap;html=1;fontFamily=monospace;" vertex="1" parent="pgx4OTSIPYldHVkFa5tO-156">
          <mxGeometry y="120" width="481" height="30" as="geometry" />
        </mxCell>
        <mxCell id="pgx4OTSIPYldHVkFa5tO-178" value="schedule_type&lt;span style=&quot;white-space: pre;&quot;&gt;&#x9;&lt;/span&gt;&lt;span style=&quot;white-space: pre;&quot;&gt;&#x9;&lt;code&gt;enum(daily , weekly)&lt;/code&gt;&lt;/span&gt;" style="text;strokeColor=default;fillColor=none;align=left;verticalAlign=middle;spacingLeft=4;spacingRight=4;overflow=hidden;points=[[0,0.5],[1,0.5]];portConstraint=eastwest;rotatable=0;whiteSpace=wrap;html=1;fontFamily=monospace;" vertex="1" parent="pgx4OTSIPYldHVkFa5tO-156">
          <mxGeometry y="150" width="481" height="30" as="geometry" />
        </mxCell>
        <mxCell id="pgx4OTSIPYldHVkFa5tO-162" value="daily" style="swimlane;fontStyle=4;childLayout=stackLayout;horizontal=1;startSize=30;horizontalStack=0;resizeParent=1;resizeParentMax=0;resizeLast=0;collapsible=1;marginBottom=0;whiteSpace=wrap;html=1;fontFamily=monospace;" vertex="1" parent="1">
          <mxGeometry x="30" y="340" width="189" height="120" as="geometry" />
        </mxCell>
        <mxCell id="pgx4OTSIPYldHVkFa5tO-163" value="Id&lt;span style=&quot;white-space: pre;&quot;&gt;&#x9;&lt;/span&gt;&lt;span style=&quot;white-space: pre;&quot;&gt;&#x9;&lt;/span&gt;int&lt;span style=&quot;white-space: pre;&quot;&gt;&#x9;&lt;/span&gt;&lt;span style=&quot;white-space: pre;&quot;&gt;&#x9;&lt;/span&gt;key" style="text;strokeColor=default;fillColor=none;align=left;verticalAlign=middle;spacingLeft=4;spacingRight=4;overflow=hidden;points=[[0,0.5],[1,0.5]];portConstraint=eastwest;rotatable=0;whiteSpace=wrap;html=1;fontStyle=1;labelBorderColor=none;labelBackgroundColor=none;horizontal=1;spacingTop=0;fontFamily=monospace;" vertex="1" parent="pgx4OTSIPYldHVkFa5tO-162">
          <mxGeometry y="30" width="189" height="30" as="geometry" />
        </mxCell>
        <mxCell id="pgx4OTSIPYldHVkFa5tO-164" value="clinic_id&lt;span style=&quot;white-space: pre;&quot;&gt;&#x9;&lt;/span&gt;int" style="text;strokeColor=default;fillColor=none;align=left;verticalAlign=middle;spacingLeft=4;spacingRight=4;overflow=hidden;points=[[0,0.5],[1,0.5]];portConstraint=eastwest;rotatable=0;whiteSpace=wrap;html=1;fontFamily=monospace;" vertex="1" parent="pgx4OTSIPYldHVkFa5tO-162">
          <mxGeometry y="60" width="189" height="30" as="geometry" />
        </mxCell>
        <mxCell id="pgx4OTSIPYldHVkFa5tO-165" value="" style="text;strokeColor=default;fillColor=none;align=left;verticalAlign=middle;spacingLeft=4;spacingRight=4;overflow=hidden;points=[[0,0.5],[1,0.5]];portConstraint=eastwest;rotatable=0;whiteSpace=wrap;html=1;fontFamily=monospace;" vertex="1" parent="pgx4OTSIPYldHVkFa5tO-162">
          <mxGeometry y="90" width="189" height="30" as="geometry" />
        </mxCell>
        <mxCell id="pgx4OTSIPYldHVkFa5tO-166" value="monthly" style="swimlane;fontStyle=4;childLayout=stackLayout;horizontal=1;startSize=30;horizontalStack=0;resizeParent=1;resizeParentMax=0;resizeLast=0;collapsible=1;marginBottom=0;whiteSpace=wrap;html=1;fontFamily=monospace;" vertex="1" parent="1">
          <mxGeometry x="30" y="660" width="189" height="120" as="geometry" />
        </mxCell>
        <mxCell id="pgx4OTSIPYldHVkFa5tO-167" value="Id&lt;span style=&quot;white-space: pre;&quot;&gt;&#x9;&lt;/span&gt;&lt;span style=&quot;white-space: pre;&quot;&gt;&#x9;&lt;/span&gt;int&lt;span style=&quot;white-space: pre;&quot;&gt;&#x9;&lt;/span&gt;&lt;span style=&quot;white-space: pre;&quot;&gt;&#x9;&lt;/span&gt;key" style="text;strokeColor=default;fillColor=none;align=left;verticalAlign=middle;spacingLeft=4;spacingRight=4;overflow=hidden;points=[[0,0.5],[1,0.5]];portConstraint=eastwest;rotatable=0;whiteSpace=wrap;html=1;fontStyle=1;labelBorderColor=none;labelBackgroundColor=none;horizontal=1;spacingTop=0;fontFamily=monospace;" vertex="1" parent="pgx4OTSIPYldHVkFa5tO-166">
          <mxGeometry y="30" width="189" height="30" as="geometry" />
        </mxCell>
        <mxCell id="pgx4OTSIPYldHVkFa5tO-168" value="clinic_id&lt;span style=&quot;white-space: pre;&quot;&gt;&#x9;&lt;/span&gt;int" style="text;strokeColor=default;fillColor=none;align=left;verticalAlign=middle;spacingLeft=4;spacingRight=4;overflow=hidden;points=[[0,0.5],[1,0.5]];portConstraint=eastwest;rotatable=0;whiteSpace=wrap;html=1;fontFamily=monospace;" vertex="1" parent="pgx4OTSIPYldHVkFa5tO-166">
          <mxGeometry y="60" width="189" height="30" as="geometry" />
        </mxCell>
        <mxCell id="pgx4OTSIPYldHVkFa5tO-169" value="" style="text;strokeColor=default;fillColor=none;align=left;verticalAlign=middle;spacingLeft=4;spacingRight=4;overflow=hidden;points=[[0,0.5],[1,0.5]];portConstraint=eastwest;rotatable=0;whiteSpace=wrap;html=1;fontFamily=monospace;" vertex="1" parent="pgx4OTSIPYldHVkFa5tO-166">
          <mxGeometry y="90" width="189" height="30" as="geometry" />
        </mxCell>
        <mxCell id="pgx4OTSIPYldHVkFa5tO-170" value="weekly" style="swimlane;fontStyle=4;childLayout=stackLayout;horizontal=1;startSize=30;horizontalStack=0;resizeParent=1;resizeParentMax=0;resizeLast=0;collapsible=1;marginBottom=0;whiteSpace=wrap;html=1;fontFamily=monospace;" vertex="1" parent="1">
          <mxGeometry x="30" y="510" width="189" height="120" as="geometry" />
        </mxCell>
        <mxCell id="pgx4OTSIPYldHVkFa5tO-171" value="Id&lt;span style=&quot;white-space: pre;&quot;&gt;&#x9;&lt;/span&gt;&lt;span style=&quot;white-space: pre;&quot;&gt;&#x9;&lt;/span&gt;int&lt;span style=&quot;white-space: pre;&quot;&gt;&#x9;&lt;/span&gt;&lt;span style=&quot;white-space: pre;&quot;&gt;&#x9;&lt;/span&gt;key" style="text;strokeColor=default;fillColor=none;align=left;verticalAlign=middle;spacingLeft=4;spacingRight=4;overflow=hidden;points=[[0,0.5],[1,0.5]];portConstraint=eastwest;rotatable=0;whiteSpace=wrap;html=1;fontStyle=1;labelBorderColor=none;labelBackgroundColor=none;horizontal=1;spacingTop=0;fontFamily=monospace;" vertex="1" parent="pgx4OTSIPYldHVkFa5tO-170">
          <mxGeometry y="30" width="189" height="30" as="geometry" />
        </mxCell>
        <mxCell id="pgx4OTSIPYldHVkFa5tO-172" value="clinic_id&lt;span style=&quot;white-space: pre;&quot;&gt;&#x9;&lt;/span&gt;int" style="text;strokeColor=default;fillColor=none;align=left;verticalAlign=middle;spacingLeft=4;spacingRight=4;overflow=hidden;points=[[0,0.5],[1,0.5]];portConstraint=eastwest;rotatable=0;whiteSpace=wrap;html=1;fontFamily=monospace;" vertex="1" parent="pgx4OTSIPYldHVkFa5tO-170">
          <mxGeometry y="60" width="189" height="30" as="geometry" />
        </mxCell>
        <mxCell id="pgx4OTSIPYldHVkFa5tO-173" value="" style="text;strokeColor=default;fillColor=none;align=left;verticalAlign=middle;spacingLeft=4;spacingRight=4;overflow=hidden;points=[[0,0.5],[1,0.5]];portConstraint=eastwest;rotatable=0;whiteSpace=wrap;html=1;fontFamily=monospace;" vertex="1" parent="pgx4OTSIPYldHVkFa5tO-170">
          <mxGeometry y="90" width="189" height="30" as="geometry" />
        </mxCell>
        <mxCell id="pgx4OTSIPYldHVkFa5tO-174" value="spicific" style="swimlane;fontStyle=4;childLayout=stackLayout;horizontal=1;startSize=30;horizontalStack=0;resizeParent=1;resizeParentMax=0;resizeLast=0;collapsible=1;marginBottom=0;whiteSpace=wrap;html=1;fontFamily=monospace;" vertex="1" parent="1">
          <mxGeometry x="30" y="800" width="189" height="120" as="geometry" />
        </mxCell>
        <mxCell id="pgx4OTSIPYldHVkFa5tO-175" value="Id&lt;span style=&quot;white-space: pre;&quot;&gt;&#x9;&lt;/span&gt;&lt;span style=&quot;white-space: pre;&quot;&gt;&#x9;&lt;/span&gt;int&lt;span style=&quot;white-space: pre;&quot;&gt;&#x9;&lt;/span&gt;&lt;span style=&quot;white-space: pre;&quot;&gt;&#x9;&lt;/span&gt;key" style="text;strokeColor=default;fillColor=none;align=left;verticalAlign=middle;spacingLeft=4;spacingRight=4;overflow=hidden;points=[[0,0.5],[1,0.5]];portConstraint=eastwest;rotatable=0;whiteSpace=wrap;html=1;fontStyle=1;labelBorderColor=none;labelBackgroundColor=none;horizontal=1;spacingTop=0;fontFamily=monospace;" vertex="1" parent="pgx4OTSIPYldHVkFa5tO-174">
          <mxGeometry y="30" width="189" height="30" as="geometry" />
        </mxCell>
        <mxCell id="pgx4OTSIPYldHVkFa5tO-176" value="clinic_id&lt;span style=&quot;white-space: pre;&quot;&gt;&#x9;&lt;/span&gt;int" style="text;strokeColor=default;fillColor=none;align=left;verticalAlign=middle;spacingLeft=4;spacingRight=4;overflow=hidden;points=[[0,0.5],[1,0.5]];portConstraint=eastwest;rotatable=0;whiteSpace=wrap;html=1;fontFamily=monospace;" vertex="1" parent="pgx4OTSIPYldHVkFa5tO-174">
          <mxGeometry y="60" width="189" height="30" as="geometry" />
        </mxCell>
        <mxCell id="pgx4OTSIPYldHVkFa5tO-177" value="" style="text;strokeColor=default;fillColor=none;align=left;verticalAlign=middle;spacingLeft=4;spacingRight=4;overflow=hidden;points=[[0,0.5],[1,0.5]];portConstraint=eastwest;rotatable=0;whiteSpace=wrap;html=1;fontFamily=monospace;" vertex="1" parent="pgx4OTSIPYldHVkFa5tO-174">
          <mxGeometry y="90" width="189" height="30" as="geometry" />
        </mxCell>
        <mxCell id="pgx4OTSIPYldHVkFa5tO-191" style="edgeStyle=orthogonalEdgeStyle;rounded=0;orthogonalLoop=1;jettySize=auto;html=1;endArrow=diamondThin;endFill=1;startArrow=diamondThin;startFill=1;" edge="1" parent="1" source="pgx4OTSIPYldHVkFa5tO-175" target="pgx4OTSIPYldHVkFa5tO-157">
          <mxGeometry relative="1" as="geometry" />
        </mxCell>
        <mxCell id="pgx4OTSIPYldHVkFa5tO-198" value="1" style="edgeLabel;html=1;align=center;verticalAlign=middle;resizable=0;points=[];" vertex="1" connectable="0" parent="pgx4OTSIPYldHVkFa5tO-191">
          <mxGeometry x="-0.9692" y="2" relative="1" as="geometry">
            <mxPoint x="11" y="2" as="offset" />
          </mxGeometry>
        </mxCell>
        <mxCell id="pgx4OTSIPYldHVkFa5tO-192" style="edgeStyle=orthogonalEdgeStyle;rounded=0;orthogonalLoop=1;jettySize=auto;html=1;entryX=0;entryY=0.5;entryDx=0;entryDy=0;endArrow=diamondThin;endFill=1;startArrow=diamondThin;startFill=1;" edge="1" parent="1" source="pgx4OTSIPYldHVkFa5tO-167" target="pgx4OTSIPYldHVkFa5tO-157">
          <mxGeometry relative="1" as="geometry" />
        </mxCell>
        <mxCell id="pgx4OTSIPYldHVkFa5tO-197" value="1" style="edgeLabel;html=1;align=center;verticalAlign=middle;resizable=0;points=[];" vertex="1" connectable="0" parent="pgx4OTSIPYldHVkFa5tO-192">
          <mxGeometry x="-0.9412" y="-2" relative="1" as="geometry">
            <mxPoint as="offset" />
          </mxGeometry>
        </mxCell>
        <mxCell id="pgx4OTSIPYldHVkFa5tO-193" style="edgeStyle=orthogonalEdgeStyle;rounded=0;orthogonalLoop=1;jettySize=auto;html=1;endArrow=diamondThin;endFill=1;startArrow=diamondThin;startFill=1;" edge="1" parent="1" source="pgx4OTSIPYldHVkFa5tO-171" target="pgx4OTSIPYldHVkFa5tO-157">
          <mxGeometry relative="1" as="geometry" />
        </mxCell>
        <mxCell id="pgx4OTSIPYldHVkFa5tO-196" value="1" style="edgeLabel;html=1;align=center;verticalAlign=middle;resizable=0;points=[];" vertex="1" connectable="0" parent="pgx4OTSIPYldHVkFa5tO-193">
          <mxGeometry x="-0.8861" y="-1" relative="1" as="geometry">
            <mxPoint y="1" as="offset" />
          </mxGeometry>
        </mxCell>
        <mxCell id="pgx4OTSIPYldHVkFa5tO-194" style="edgeStyle=orthogonalEdgeStyle;rounded=0;orthogonalLoop=1;jettySize=auto;html=1;endArrow=diamondThin;endFill=1;startArrow=diamondThin;startFill=1;" edge="1" parent="1" source="pgx4OTSIPYldHVkFa5tO-163" target="pgx4OTSIPYldHVkFa5tO-157">
          <mxGeometry relative="1" as="geometry" />
        </mxCell>
        <mxCell id="pgx4OTSIPYldHVkFa5tO-195" value="1" style="edgeLabel;html=1;align=center;verticalAlign=middle;resizable=0;points=[];" vertex="1" connectable="0" parent="pgx4OTSIPYldHVkFa5tO-194">
          <mxGeometry x="-0.8048" y="1" relative="1" as="geometry">
            <mxPoint y="1" as="offset" />
          </mxGeometry>
        </mxCell>
      </root>
    </mxGraphModel>
  </diagram>
</mxfile>
